<?xml version="1.0" encoding="UTF-8"?>
<svg width="256px" height="257px" viewBox="0 0 256 257" version="1.1" xmlns="http://www.w3.org/2000/svg" xmlns:xlink="http://www.w3.org/1999/xlink">
    <title>image (1)</title>
    <g id="showcase" stroke="none" stroke-width="1" fill="none" fill-rule="evenodd">
        <g id="image-(1)" transform="translate(0.000000, 0.084626)" fill="#28A745" fill-rule="nonzero">
            <path d="M237.8,19.1 L236.9,18.2 C213.5,-5.2 175.1,-5.2 151.7,18.2 L97.4,72.5 C74,95.9 74,134.3 97.4,157.7 L98.3,158.6 C100.4,160.7 102.2,162.2 104.6,164 L124.4,144.2 C122,142.7 119.9,141.2 117.8,139.1 L116.9,138.2 C104.3,125.6 104.3,104.9 116.9,92 L171.2,37.7 C183.8,25.1 204.5,25.1 217.4,37.7 L218.3,38.6 C230.9,51.2 230.9,71.9 218.3,84.8 L193.7,109.4 C197.9,119.9 200,131.3 199.7,142.4 L237.8,104.3 C261.5,80.9 261.5,42.5 237.8,19.1 Z M157.7,97.4 C155.6,95.3 153.8,93.8 151.4,92 L131.6,111.8 C134,113.3 136.1,114.8 138.2,116.9 L139.1,117.8 C151.7,130.4 151.7,151.1 139.1,164 L84.8,218.3 C72.2,230.9 51.5,230.9 38.6,218.3 L37.7,217.4 C25.1,204.8 25.1,184.1 37.7,171.2 L62.3,146.6 C58.1,136.1 56,124.7 56.3,113.6 L18.2,151.7 C-5.2,175.1 -5.2,213.5 18.2,236.9 L19.1,237.8 C42.5,261.2 80.9,261.2 104.3,237.8 L158.6,183.5 C182,160.1 182,121.7 158.6,98.3 L157.7,97.4 Z" id="Shape"></path>
        </g>
    </g>
</svg>