<?xml version="1.0" encoding="UTF-8"?>
<svg width="270px" height="249px" viewBox="0 0 270 249" version="1.1" xmlns="http://www.w3.org/2000/svg" xmlns:xlink="http://www.w3.org/1999/xlink">
    <title>image</title>
    <g id="showcase" stroke="none" stroke-width="1" fill="none" fill-rule="evenodd">
        <g id="image" transform="translate(0.000000, 0.084626)" fill="#28A745" fill-rule="nonzero">
            <path d="M123.6,208.8 C124.2,230.4 142.2,247.8 164.1,247.2 C185.1,246.6 201.9,229.8 202.5,208.8 L202.5,77.7 L260.7,68.1 C266.1,67.2 270,62.4 270,57 L270,12 C270,5.7 264.9,0.6 258.9,0.6 C258.3,0.6 257.7,0.6 257.1,0.9 L189.3,12 C183.9,12.9 180,17.7 180,23.1 L180,173.1 C160.2,163.8 136.8,172.2 127.5,191.7 C125.1,197.1 123.6,202.8 123.6,208.8 Z M247.5,25.2 L247.5,47.4 L202.5,54.9 L202.5,32.7 L247.5,25.2 Z M163.2,191.7 C172.5,191.7 180,199.2 180,208.5 C180,217.8 172.5,225.3 163.2,225.3 C153.9,225.3 146.4,217.8 146.4,208.5 C146.4,208.5 146.4,208.5 146.4,208.5 C146.4,199.5 153.9,191.7 163.2,191.7 C163.2,191.7 163.2,191.7 163.2,191.7 Z" id="Shape"></path>
            <path d="M6,146.7 L151.5,146.7 C154.8,146.7 157.5,144 157.5,140.7 L157.5,130.2 C157.5,126.9 154.8,124.2 151.5,124.2 L6,124.2 C2.7,124.2 0,126.9 0,130.2 L0,140.7 C0,144 2.7,146.7 6,146.7 C6,146.7 6,146.7 6,146.7 Z" id="Path"></path>
            <path d="M84.6,56.7 L151.5,56.7 C154.8,56.7 157.5,54 157.5,50.7 L157.5,40.2 C157.5,36.9 154.8,34.2 151.5,34.2 L84.6,34.2 C81.3,34.2 78.6,36.9 78.6,40.2 L78.6,50.7 C78.6,54 81.3,56.7 84.6,56.7 C84.6,56.7 84.6,56.7 84.6,56.7 Z" id="Path"></path>
            <path d="M6,101.7 L151.5,101.7 C154.8,101.7 157.5,99 157.5,95.7 L157.5,85.2 C157.5,81.9 154.8,79.2 151.5,79.2 L6,79.2 C2.7,79.2 0,81.9 0,85.2 L0,95.7 C0,99 2.7,101.7 6,101.7 C6,101.7 6,101.7 6,101.7 Z" id="Path"></path>
        </g>
    </g>
</svg>