<?xml version="1.0" encoding="UTF-8"?>
<svg width="300px" height="300px" viewBox="0 0 300 300" version="1.1" xmlns="http://www.w3.org/2000/svg" xmlns:xlink="http://www.w3.org/1999/xlink">
    <title>image (2)</title>
    <g id="showcase" stroke="none" stroke-width="1" fill="none" fill-rule="evenodd">
        <g id="image-(2)" fill="#28A745">
            <path d="M176.191819,141.918195 L184.908322,135.148096 C186.854725,133.624824 189.562764,133.370945 191.255289,135.148096 L193.370945,137.179126 L199.971791,143.864598 L202.002821,145.895628 C203.779972,147.672779 203.526093,150.296192 202.002821,152.242595 L195.232722,161.043724 C197.51763,164.93653 199.294781,169.167842 200.479549,173.653032 L211.480959,175.091678 C213.93512,175.345557 215.96615,177.122708 215.96615,179.576869 L215.96615,182.454161 L215.96615,191.847673 L215.96615,194.809591 C215.96615,197.263752 213.93512,198.956276 211.480959,199.294781 L200.479549,200.648801 C199.294781,205.133992 197.51763,209.449929 195.232722,213.342736 L202.002821,222.059238 C203.526093,224.005642 203.779972,226.713681 202.002821,228.406206 L199.971791,230.521862 L193.370945,237.122708 L191.255289,239.153738 C189.562764,240.930889 186.854725,240.67701 184.908322,239.153738 L176.191819,232.468265 C172.214386,234.668547 167.983075,236.445698 163.497884,237.715092 L162.143865,248.631876 C161.80536,251.086037 160.112835,253.117066 157.574048,253.117066 L154.696756,253.117066 L145.303244,253.117066 L142.425952,253.117066 C139.971791,253.117066 138.19464,251.086037 137.940762,248.631876 L136.502116,237.715092 C132.016925,236.445698 127.785614,234.668547 123.808181,232.468265 L115.091678,239.153738 C113.145275,240.67701 110.521862,240.930889 108.744711,239.153738 L106.713681,237.122708 L100.028209,230.521862 L97.9971791,228.406206 C96.2200282,226.713681 96.4739069,224.005642 97.9971791,222.059238 L104.767278,213.342736 C102.48237,209.449929 100.705219,205.133992 99.5204513,200.648801 L88.5190409,199.294781 C86.0648801,198.956276 84.0338505,197.263752 84.0338505,194.809591 L84.0338505,191.847673 L84.0338505,182.454161 L84.0338505,179.576869 C84.0338505,177.122708 86.0648801,175.345557 88.5190409,175.091678 L99.5204513,173.653032 C100.705219,169.167842 102.48237,164.93653 104.767278,161.043724 L97.9971791,152.242595 C96.4739069,150.296192 96.2200282,147.672779 97.9971791,145.895628 L100.028209,143.864598 L106.713681,137.179126 L108.744711,135.148096 C110.521862,133.370945 113.145275,133.624824 115.091678,135.148096 L123.808181,141.918195 C127.785614,139.633286 132.016925,137.856135 136.502116,136.671368 L137.940762,125.669958 L137.940762,125.585331 L137.940762,125.500705 L137.940762,125.331453 L137.940762,125.246827 L138.025388,125.1622 L138.025388,124.992948 L138.025388,124.908322 L138.110014,124.823695 L138.110014,124.739069 L138.19464,124.569817 L138.19464,124.48519 L138.19464,124.400564 L138.279267,124.315938 L138.279267,124.146685 L138.363893,124.062059 L138.363893,123.977433 L138.448519,123.892807 L138.448519,123.808181 L138.533145,123.638928 L138.617772,123.554302 L138.617772,123.554302 L138.617772,123.469676 L138.702398,123.385049 L138.787024,123.300423 L138.787024,123.215797 L138.87165,123.131171 L138.956276,123.046544 L139.040903,122.961918 L139.040903,122.877292 L139.125529,122.792666 L139.210155,122.708039 L139.294781,122.623413 L139.379408,122.538787 L139.379408,122.538787 L139.379408,122.454161 L139.379408,122.454161 L139.464034,122.369535 L139.464034,122.369535 L139.54866,122.284908 L139.633286,122.284908 L139.717913,122.200282 L139.717913,122.200282 L139.802539,122.115656 L139.887165,122.03103 L139.971791,121.946403 L140.056417,121.946403 C140.141044,121.861777 140.141044,121.861777 140.22567,121.777151 L140.22567,121.777151 L140.310296,121.777151 L140.310296,121.777151 L140.394922,121.692525 L140.479549,121.692525 L140.479549,121.692525 L140.564175,121.607898 L140.564175,121.607898 L140.733427,121.607898 L140.733427,121.607898 L140.818054,121.523272 L140.90268,121.523272 L140.90268,121.523272 L140.987306,121.438646 L140.987306,121.438646 L141.071932,121.438646 L141.156559,121.35402 L141.156559,121.35402 L141.325811,121.35402 L141.325811,121.35402 L141.410437,121.35402 L141.495063,121.269394 L141.495063,121.269394 L141.57969,121.269394 L141.57969,121.269394 C141.664316,121.269394 141.748942,121.269394 141.833568,121.269394 C141.918195,121.269394 142.002821,121.269394 142.087447,121.184767 L142.172073,121.184767 L142.172073,121.184767 L142.2567,121.184767 L142.2567,121.184767 L142.425952,121.184767 L142.425952,121.184767 L145.303244,121.184767 L154.696756,121.184767 L157.574048,121.184767 C160.112835,121.184767 161.80536,123.215797 162.143865,125.669958 L163.497884,136.671368 C167.983075,137.856135 172.214386,139.633286 176.191819,141.918195 Z M127.023977,23.6107193 C127.023977,34.4428773 129.055007,40.4513399 135.486601,50.9449929 C140.479549,57.3765867 145.303244,60.2538787 150.042313,59.9153738 C154.696756,60.2538787 159.520451,57.3765867 164.513399,50.9449929 C170.944993,40.4513399 172.976023,34.4428773 172.976023,23.6107193 C172.976023,-7.78561354 127.023977,-7.78561354 127.023977,23.6107193 Z M205.049365,110.183357 C205.049365,110.183357 205.049365,97.0662906 203.526093,84.8801128 C201.918195,72.7785614 178.476728,67.8702398 169.760226,64.4851904 C166.96756,63.3850494 165.444288,61.6925247 164.598025,60.1692525 C160.535966,63.8081805 155.712271,66.51622 150.042313,66.1777151 C144.372355,66.51622 139.54866,63.8928068 135.571227,60.2538787 C134.809591,61.6925247 133.286319,63.3004231 130.239774,64.4851904 C121.523272,67.8702398 98.0818054,72.7785614 96.5585331,84.8801128 C94.9506347,97.0662906 94.9506347,110.183357 94.9506347,110.183357 L110.183357,110.183357 L110.183357,106.713681 C110.183357,105.444288 111.283498,104.344147 112.552891,104.344147 L112.552891,104.344147 C113.822285,104.344147 114.922426,105.444288 114.922426,106.713681 L114.922426,110.183357 L185.077574,110.183357 L185.077574,106.713681 C185.077574,105.444288 186.177715,104.344147 187.447109,104.344147 L187.447109,104.344147 C188.801128,104.344147 189.816643,105.444288 189.816643,106.713681 L189.816643,110.183357 L205.049365,110.183357 Z M300,299.407616 C300,299.407616 300,286.29055 298.476728,274.104372 C296.868829,262.002821 273.427362,257.094499 264.71086,253.70945 C261.918195,252.609309 260.394922,250.916784 259.54866,249.393512 C255.571227,253.03244 250.662906,255.74048 244.992948,255.401975 C239.32299,255.74048 234.499295,253.117066 230.521862,249.478138 C229.760226,250.916784 228.236953,252.524683 225.275035,253.70945 C216.473907,257.094499 193.03244,262.002821 191.509168,274.104372 C189.901269,286.29055 189.901269,299.407616 189.901269,299.407616 L205.133992,299.407616 L205.133992,295.937941 C205.133992,294.668547 206.234133,293.568406 207.503526,293.568406 L207.503526,293.568406 C208.857546,293.568406 209.873061,294.668547 209.873061,295.937941 L209.873061,299.407616 L280.028209,299.407616 L280.028209,295.937941 C280.028209,294.668547 281.12835,293.568406 282.397743,293.568406 L282.397743,293.568406 C283.751763,293.568406 284.767278,294.668547 284.767278,295.937941 L284.767278,299.407616 L300,299.407616 Z M221.974612,212.834979 C221.974612,223.667137 224.005642,229.675599 230.437236,240.169252 C235.430183,246.600846 240.253879,249.478138 244.992948,249.139633 C249.647391,249.478138 254.471086,246.600846 259.54866,240.169252 C265.980254,229.675599 267.926657,223.667137 267.926657,212.834979 C267.926657,181.438646 221.974612,181.438646 221.974612,212.834979 Z M110.098731,299.407616 C110.098731,299.407616 110.098731,286.29055 108.490832,274.104372 C106.96756,262.002821 83.5260931,257.094499 74.809591,253.70945 C71.932299,252.609309 70.493653,250.916784 69.6473907,249.393512 C65.5853315,253.03244 60.7616361,255.74048 55.0070522,255.401975 C49.4217207,255.74048 44.5980254,253.117066 40.5359661,249.478138 C39.77433,250.916784 38.3356841,252.524683 35.2891396,253.70945 C26.5726375,257.094499 3.13117066,262.002821 1.52327221,274.104372 C0,286.29055 0,299.407616 0,299.407616 L15.2327221,299.407616 L15.2327221,295.937941 C15.2327221,294.668547 16.248237,293.568406 17.6022567,293.568406 L17.6022567,293.568406 C18.8716502,293.568406 19.9717913,294.668547 19.9717913,295.937941 L19.9717913,299.407616 L90.1269394,299.407616 L90.1269394,295.937941 C90.1269394,294.668547 91.2270804,293.568406 92.4964739,293.568406 L92.4964739,293.568406 C93.7658674,293.568406 94.8660085,294.668547 94.8660085,295.937941 L94.8660085,299.407616 L110.098731,299.407616 Z M32.0733427,212.834979 C32.0733427,223.667137 34.1043724,229.675599 40.5359661,240.169252 C45.528914,246.600846 50.3526093,249.478138 55.0070522,249.139633 C59.7461213,249.478138 64.5698166,246.600846 69.5627645,240.169252 C75.9943583,229.675599 78.0253879,223.667137 78.0253879,212.834979 C78.0253879,181.438646 32.0733427,181.438646 32.0733427,212.834979 Z M150.042313,167.306065 C155.458392,167.306065 160.45134,169.590973 164.005642,173.145275 C167.64457,176.699577 169.844852,181.692525 169.844852,187.19323 C169.844852,192.609309 167.64457,197.602257 164.005642,201.241185 C160.45134,204.795487 155.458392,206.995769 150.042313,206.995769 C144.541608,206.995769 139.54866,204.795487 135.994358,201.241185 C132.35543,197.602257 130.155148,192.609309 130.155148,187.19323 C130.155148,181.692525 132.35543,176.699577 135.994358,173.145275 C139.54866,169.590973 144.541608,167.306065 150.042313,167.306065 Z M157.404795,179.746121 C155.543018,177.884344 152.919605,176.699577 150.042313,176.699577 C147.165021,176.699577 144.541608,177.884344 142.595205,179.746121 C140.733427,181.692525 139.54866,184.315938 139.54866,187.19323 C139.54866,190.070522 140.733427,192.693935 142.595205,194.555712 C144.541608,196.417489 147.165021,197.602257 150.042313,197.602257 C152.919605,197.602257 155.543018,196.417489 157.404795,194.555712 C159.266573,192.693935 160.45134,190.070522 160.45134,187.19323 C160.45134,184.315938 159.266573,181.692525 157.404795,179.746121 Z M150.042313,148.434415 C171.368124,148.434415 188.716502,165.782793 188.716502,187.19323 C188.716502,208.519041 171.368124,225.867419 150.042313,225.867419 C128.631876,225.867419 111.283498,208.519041 111.283498,187.19323 C111.283498,165.782793 128.631876,148.434415 150.042313,148.434415 Z" id="Shape"></path>
        </g>
    </g>
</svg>