<?xml version="1.0" encoding="UTF-8"?>
<svg width="300px" height="300px" viewBox="0 0 300 300" version="1.1" xmlns="http://www.w3.org/2000/svg" xmlns:xlink="http://www.w3.org/1999/xlink">
    <title>image (4)</title>
    <g id="showcase" stroke="none" stroke-width="1" fill="none" fill-rule="evenodd">
        <g id="image-(4)" fill="#28A745" fill-rule="nonzero">
            <path d="M246.43125,0 C216.975,0 192.8625,24.1125 192.8625,53.56875 C192.8625,58.36875 193.55625,63 194.75625,67.434375 L95.634375,117 C85.8,104.5125 70.603125,96.43125 53.56875,96.43125 C24.1125,96.43125 2.84217094e-14,120.54375 2.84217094e-14,150 C2.84217094e-14,179.45625 24.1125,203.56875 53.56875,203.56875 C70.584375,203.56875 85.790625,195.4875 95.625,183.009375 L194.75625,232.575 C193.565625,237.009375 192.8625,241.63125 192.8625,246.43125 C192.8625,275.8875 216.975,300 246.43125,300 C275.8875,300 300,275.8875 300,246.43125 C300,216.975 275.8875,192.8625 246.43125,192.8625 C229.396875,192.8625 214.2,200.94375 204.365625,213.43125 L105.24375,163.865625 C106.44375,159.43125 107.1375,154.8 107.1375,150 C107.1375,145.2 106.44375,140.578125 105.24375,136.14375 L204.375,86.578125 C214.209375,99.05625 229.40625,107.1375 246.43125,107.1375 C275.8875,107.1375 300,83.025 300,53.56875 C300,24.1125 275.8875,0 246.43125,0 Z M246.43125,21.43125 C264.309375,21.43125 278.578125,35.7 278.578125,53.578125 C278.578125,71.45625 264.309375,85.725 246.43125,85.725 C228.553125,85.725 214.284375,71.45625 214.284375,53.578125 C214.284375,35.7 228.553125,21.43125 246.43125,21.43125 Z M53.56875,117.853125 C71.446875,117.853125 85.715625,132.121875 85.715625,150 C85.715625,167.878125 71.446875,182.146875 53.56875,182.146875 C35.690625,182.146875 21.421875,167.878125 21.421875,150 C21.421875,132.121875 35.690625,117.853125 53.56875,117.853125 L53.56875,117.853125 Z M246.43125,214.284375 C264.309375,214.284375 278.578125,228.553125 278.578125,246.43125 C278.578125,264.309375 264.309375,278.578125 246.43125,278.578125 C228.553125,278.578125 214.284375,264.309375 214.284375,246.43125 C214.284375,228.553125 228.553125,214.284375 246.43125,214.284375 Z" id="Shape"></path>
        </g>
    </g>
</svg>