<?xml version="1.0" encoding="UTF-8"?>
<svg width="286px" height="264px" viewBox="0 0 286 264" version="1.1" xmlns="http://www.w3.org/2000/svg" xmlns:xlink="http://www.w3.org/1999/xlink">
    <title>Group</title>
    <g id="showcase" stroke="none" stroke-width="1" fill="none" fill-rule="evenodd">
        <g id="Group" fill="#28A745" fill-rule="nonzero">
            <path d="M228.8,149.4 C224.9,149.4 221,149.7 217.4,150.6 L185.3,95.1 C194.3,85.2 199.7,72 199.7,57.6 C199.7,26.4 174.2,0.9 143,0.9 C111.8,0.9 86.3,26.4 86.3,57.6 C86.3,72 92,85.2 100.7,95.1 L68.6,150.6 C65,149.7 61.1,149.4 57.2,149.4 C26,149.4 0.5,174.9 0.5,206.1 C0.5,237.3 26,263.1 57.2,263.1 C82.1,263.1 103.4,246.6 110.9,224.1 L175.1,224.1 C182.6,246.6 203.6,263.1 228.8,263.1 C260,263.1 285.5,237.6 285.5,206.4 C285.5,175.2 260,149.4 228.8,149.4 Z M143,12.9 C167.6,12.9 188,33 188,57.9 C188,72.9 180.5,85.8 169.4,94.2 L168.5,86.7 C167.3,77.1 159.2,69.9 149.6,69.9 L136.4,69.9 C126.8,69.9 118.7,77.1 117.5,86.7 L116.6,94.2 C105.5,86.1 98,72.9 98,57.9 C98,33 118.4,12.9 143,12.9 Z M83.6,242.4 L82.7,234.9 C81.5,225.3 73.4,218.1 63.8,218.1 L50.6,218.1 C41,218.1 32.9,225.3 31.7,234.9 L30.8,242.4 C19.7,234.3 12.2,221.1 12.2,206.1 C12.2,181.5 32.3,161.1 57.2,161.1 C82.1,161.1 102.2,181.2 102.2,206.1 C102.2,221.1 94.7,234.3 83.6,242.4 Z M113.3,212.1 C113.6,210 113.9,208.2 113.9,206.1 C113.9,183 100.1,163.2 80,154.2 L109.4,103.2 C118.7,110.1 130.1,114.3 142.7,114.3 C155.3,114.3 166.7,110.1 176,103.2 L205.4,154.2 C185.6,162.9 171.5,183 171.5,206.1 C171.5,208.2 171.8,210 172.1,212.1 L113.3,212.1 Z M254.9,242.4 L254,234.9 C252.8,225.3 244.7,218.1 235.1,218.1 L221.9,218.1 C212.3,218.1 204.2,225.3 203,234.9 L202.1,242.4 C191,234.3 183.5,221.1 183.5,206.1 C183.5,181.5 203.6,161.1 228.5,161.1 C253.4,161.1 273.5,181.2 273.5,206.1 C273.5,221.1 266.3,234.3 254.9,242.4 Z" id="Shape"></path>
            <circle id="Oval" cx="143" cy="47.1" r="17.7"></circle>
            <circle id="Oval" cx="57.2" cy="196.6" r="17.7"></circle>
            <circle id="Oval" cx="228.8" cy="195.6" r="17.7"></circle>
        </g>
    </g>
</svg>